<?xml version="1.0" encoding="utf-8"?><!DOCTYPE svg PUBLIC "-//W3C//DTD SVG 1.1//EN" "http://www.w3.org/Graphics/SVG/1.1/DTD/svg11.dtd"><svg id="009-login" width="256" height="256" style="width:256px;height:256px;" version="1.1" xmlns="http://www.w3.org/2000/svg" viewBox="0 0 1024 1024" enable-background="new 0 0 1024 1024" xml:space="preserve"><path fill="#666" d="M919.57 1024 l-888 0 q-12 0 -20 -8 q-10 -8 -10 -22 q-12 -24 68 -182 q78 -158 406 -180 q306 16 394 156 q86 142 78 198 l2 8 q0 14 -8 22 q-10 8 -22 8 l0 0 ZM65.57 966 l820 0 q-4 -68 -88 -168 q-84 -98 -322 -108 q-236 10 -320 108 q-84 100 -90 168 l0 0 ZM475.57 558 q-118 -4 -196 -84 q-80 -78 -82 -196 q2 -118 82 -196 q78 -78 196 -82 q118 4 198 82 q78 78 80 196 q-2 118 -80 196 q-80 80 -198 84 l0 0 ZM475.57 58 q-94 4 -156 66 q-62 62 -64 154 q2 94 64 156 q62 62 156 64 q92 -2 156 -64 q62 -62 64 -156 q-2 -92 -64 -154 q-64 -62 -156 -66 l0 0 Z"/></svg>