<?xml version="1.0" encoding="utf-8"?><!DOCTYPE svg PUBLIC "-//W3C//DTD SVG 1.1//EN" "http://www.w3.org/Graphics/SVG/1.1/DTD/svg11.dtd"><svg id="%E8%BD%A6" width="256" height="256" style="width:256px;height:256px;" version="1.1" xmlns="http://www.w3.org/2000/svg" viewBox="0 0 1024 1024" enable-background="new 0 0 1024 1024" xml:space="preserve"><path fill="#666" d="M397.85 1024 q104.18 -11.08 114.15 -114.15 q-9.97 -104.17 -114.15 -113.04 q-103.06 8.87 -114.14 113.04 q11.08 103.07 114.14 114.15 l0 0 ZM397.85 853.33 q52.09 4.44 57.63 56.52 q-5.54 52.09 -57.63 56.52 q-50.98 -4.43 -56.52 -56.52 q5.54 -52.08 56.52 -56.52 l0 0 ZM796.81 1024 q104.18 -11.08 113.04 -114.15 q-8.86 -104.17 -113.04 -113.04 q-105.28 8.87 -114.14 113.04 q8.86 103.07 114.14 114.15 l0 0 ZM796.81 853.33 q52.09 4.44 56.52 56.52 q-4.43 52.09 -56.52 56.52 q-52.08 -4.43 -57.62 -56.52 q5.54 -52.08 57.62 -56.52 l0 0 ZM940.88 140.74 q22.17 26.6 16.63 62.07 l-37.68 229.4 q-18.84 72.03 -93.09 84.22 l-566.31 49.87 l14.41 84.23 q8.87 28.81 38.79 32.14 l568.52 0 q24.38 2.21 27.7 27.7 q-3.32 26.6 -27.7 28.82 l-568.52 0 q-76.47 -5.54 -94.2 -79.8 l-95.31 -569.62 q-8.86 -29.93 -37.68 -32.14 l-57.63 0 q-25.49 -3.33 -28.81 -29.92 q3.32 -25.49 28.81 -27.71 l57.63 0 q75.36 6.65 93.09 79.79 l5.54 34.36 l697.08 0 q35.46 0 58.73 26.59 l0 0 ZM900.99 192.83 q1.11 -8.86 -4.44 -15.51 q-4.43 -6.65 -14.4 -6.65 l-687.1 0 l56.52 339.11 l570.73 -49.87 q32.14 -6.65 39.9 -37.68 l38.79 -229.4 l0 0 Z"/></svg>